<svg width="117" height="32" viewBox="0 0 117 32" fill="none" xmlns="http://www.w3.org/2000/svg">
<path d="M107.766 31.9598C102.785 31.9598 99.2713 29.8693 99.0303 25.1055H103.609C103.97 27.3769 105.537 28.201 107.665 28.201C109.994 28.201 111.721 27.5779 111.721 25.6884C111.721 23.9397 110.135 23.5377 107.002 22.6131C102.806 21.3869 99.4922 19.8593 99.4922 15.5377C99.4922 11.6382 102.685 9.28644 107.243 9.28644C111.641 9.28644 114.975 10.9749 115.637 15.9598L111.059 15.9397C110.436 13.608 108.93 13.005 107.203 13.005C105.275 13.005 104.071 13.9699 104.071 15.4573C104.071 17.2462 105.617 17.9296 108.709 18.8543C112.043 19.8593 116.3 20.7035 116.3 25.3467C116.3 29.4874 112.906 31.9598 107.766 31.9598Z" fill="#FFFFFF"/>
<path d="M89.2877 32C82.7413 32 78.9059 27.397 78.9059 20.5829C78.9059 13.4473 82.9622 9.26635 88.866 9.26635C94.6894 9.26635 97.7819 12.8241 97.6212 17.2261H93.083C93.0026 14.8342 91.6773 13.3065 88.8861 13.2864C85.151 13.2663 83.7253 16.0603 83.7253 20.4824C83.7253 25.5477 85.5727 27.9799 89.5688 28C90.9544 28 93.1633 26.6935 93.103 24.5427H97.6212C97.7618 29.1859 93.6854 32 89.2877 32Z" fill="#FFFFFF"/>
<path d="M73.9762 6.41205C72.2492 6.41205 70.8637 5.08542 70.8637 3.19598C70.8637 1.32663 72.2492 0 73.9762 0C75.683 0 77.0686 1.32663 77.0686 3.19598C77.0686 5.08542 75.663 6.41205 73.9762 6.41205ZM71.5464 31.6181V9.66833H76.3457L76.2654 31.6181H71.5464Z" fill="#FFFFFF"/>
<path d="M57.2096 31.6181V9.66834H61.2659L61.6273 15.3367C62.2699 12.2613 63.9366 9.22613 67.7319 9.22613C68.2741 9.22613 68.8163 9.28643 69.2781 9.40703V14.4724C68.3544 14.1708 67.27 14.1105 66.4066 14.1105C64.8603 14.1105 62.6314 15.0553 61.9486 16.9045V31.6181H57.2096Z" fill="#FFFFFF"/>
<path d="M49.7162 31.9397C46.2423 31.9397 44.194 30.0904 44.194 26.7738V15.6583C44.194 14.794 44.5756 14.01 45.2985 13.7889H41.3225V9.66833H44.2342L45.2583 3.39698H48.8729V9.66833H54.3951V13.7889H48.8729V25.5879C48.8729 27.1558 49.415 27.6784 51.3026 27.6784C52.5075 27.6784 53.5115 27.6583 54.3549 27.6382V31.6784C52.9493 31.9397 51.1821 31.9397 49.7162 31.9397Z" fill="#FFFFFF"/>
<path d="M28.546 31.8593C24.5298 31.8593 21.6984 29.407 21.6984 25.8895C21.6984 22.0302 23.9274 20.2814 27.5821 19.4975C30.1525 18.9347 33.526 18.6935 34.8514 18.593V17.7086C34.8514 14.7337 33.767 13.2462 30.9356 13.2462C28.2046 13.2462 26.799 14.0101 26.7387 17.4874H22.4213C21.9595 11.799 25.554 9.26635 31.1967 9.26635C35.6144 9.26635 39.4298 10.9548 39.4298 17.2663V31.6181H34.7911L34.8514 26.6935C34.3494 29.6683 32.3011 31.8593 28.546 31.8593ZM29.8111 28.2814C31.8794 28.2814 34.4096 27.1156 34.8514 25.2663V21.2462C33.767 21.3668 32.1204 21.6684 31.0762 21.8895C28.0841 22.5126 26.8391 23.3568 26.8391 25.407C26.8391 27.1759 28.2247 28.2814 29.8111 28.2814Z" fill="#FFFFFF"/>
<path d="M8.57451 31.8593C2.89164 31.8593 0 27.0955 0 20.5226C0 13.1055 4.25714 9.26634 8.73516 9.26634C12.3497 9.26634 13.8959 11.0955 14.4783 12.5628V0.341725H19.1973V31.6181H14.4984V26.6131L14.4783 26.6734C14.2373 28.3819 13.0525 31.8593 8.57451 31.8593ZM4.83948 20.6231C4.83948 25.3266 6.86764 28 9.87977 28C12.8919 28 14.2172 26.1306 14.4783 25.2663L14.4984 25.3266L14.4783 15.2764V15.2965C14.1369 14.2915 12.9722 13.2462 10.2412 13.2462C7.08853 13.2462 4.83948 15.397 4.83948 20.6231Z" fill="#FFFFFF"/>
</svg>
